<?xml version="1.0" encoding="UTF-8" standalone="no"?>
<!-- Created with Inkscape (http://www.inkscape.org/) -->

<svg
   xmlns:dc="http://purl.org/dc/elements/1.1/"
   xmlns:cc="http://creativecommons.org/ns#"
   xmlns:rdf="http://www.w3.org/1999/02/22-rdf-syntax-ns#"
   xmlns:svg="http://www.w3.org/2000/svg"
   xmlns="http://www.w3.org/2000/svg"
   xmlns:sodipodi="http://sodipodi.sourceforge.net/DTD/sodipodi-0.dtd"
   xmlns:inkscape="http://www.inkscape.org/namespaces/inkscape"
   width="245mm"
   height="230mm"
   viewBox="0 0 245 230"
   version="1.1"
   id="svg8"
   inkscape:version="0.91 r13725"
   sodipodi:docname="turtleninja.svg">
  <defs
     id="defs2" />
  <sodipodi:namedview
     id="base"
     pagecolor="#ffffff"
     bordercolor="#666666"
     borderopacity="1.0"
     inkscape:pageopacity="0.0"
     inkscape:pageshadow="2"
     inkscape:zoom="0.50383782"
     inkscape:cx="284.74794"
     inkscape:cy="733.6157"
     inkscape:document-units="mm"
     inkscape:current-layer="layer1"
     showgrid="false"
     showguides="false"
     inkscape:window-width="1916"
     inkscape:window-height="1035"
     inkscape:window-x="4"
     inkscape:window-y="1"
     inkscape:window-maximized="1"
     fit-margin-top="0"
     fit-margin-left="0"
     fit-margin-right="0"
     fit-margin-bottom="0" />
  <metadata
     id="metadata5">
    <rdf:RDF>
      <cc:Work
         rdf:about="">
        <dc:format>image/svg+xml</dc:format>
        <dc:type
           rdf:resource="http://purl.org/dc/dcmitype/StillImage" />
        <dc:title></dc:title>
      </cc:Work>
    </rdf:RDF>
  </metadata>
  <g
     inkscape:label="Layer 1"
     inkscape:groupmode="layer"
     id="layer1"
     transform="translate(-9.3512465,-29.471565)">
    <g
       id="g15173"
       transform="translate(8.9623197,-3.3608699)">
      <rect
         ry="3.1080346"
         y="52.778229"
         x="159.62366"
         height="7.2520924"
         width="23.477808"
         id="rect15161"
         style="opacity:1;fill:none;fill-opacity:1;stroke:#919191;stroke-width:2.13985586;stroke-linecap:round;stroke-linejoin:round;stroke-miterlimit:4;stroke-dasharray:none;stroke-opacity:1" />
      <rect
         ry="5.1627278"
         y="53.208302"
         x="155.13684"
         height="35.893253"
         width="10.325456"
         id="rect15159"
         style="opacity:1;fill:#20182c;fill-opacity:1;stroke:none;stroke-width:12.00300026;stroke-linecap:round;stroke-linejoin:round;stroke-miterlimit:4;stroke-dasharray:none;stroke-opacity:1" />
      <rect
         style="opacity:1;fill:none;fill-opacity:1;stroke:#919191;stroke-width:2.13985586;stroke-linecap:round;stroke-linejoin:round;stroke-miterlimit:4;stroke-dasharray:none;stroke-opacity:1"
         id="rect15165"
         width="23.477808"
         height="7.2520924"
         x="176.83275"
         y="55.728359"
         ry="3.1080346" />
      <rect
         ry="3.1080346"
         y="57.940956"
         x="195.02522"
         height="7.2520924"
         width="23.477808"
         id="rect15167"
         style="opacity:1;fill:none;fill-opacity:1;stroke:#919191;stroke-width:2.13985586;stroke-linecap:round;stroke-linejoin:round;stroke-miterlimit:4;stroke-dasharray:none;stroke-opacity:1" />
      <rect
         style="opacity:1;fill:none;fill-opacity:1;stroke:#919191;stroke-width:2.13985586;stroke-linecap:round;stroke-linejoin:round;stroke-miterlimit:4;stroke-dasharray:none;stroke-opacity:1"
         id="rect15169"
         width="23.477808"
         height="7.2520924"
         x="211.74263"
         y="60.89109"
         ry="3.1080346" />
      <rect
         style="opacity:1;fill:#20182c;fill-opacity:1;stroke:none;stroke-width:12.00300026;stroke-linecap:round;stroke-linejoin:round;stroke-miterlimit:4;stroke-dasharray:none;stroke-opacity:1"
         id="rect15171"
         width="10.325456"
         height="35.893253"
         x="230.36516"
         y="34.278297"
         ry="5.1627278" />
    </g>
    <g
       id="g4702"
       transform="translate(8.9623197,-3.3608699)">
      <g
         transform="translate(0.1239357,0)"
         id="g4642">
        <ellipse
           style="opacity:1;fill:#64421b;fill-opacity:1;stroke:none;stroke-width:0.15833908;stroke-linecap:round;stroke-linejoin:round;stroke-miterlimit:4;stroke-dasharray:none;stroke-dashoffset:0;stroke-opacity:1;paint-order:stroke markers fill"
           id="path4553"
           cx="90.646255"
           cy="161.49435"
           rx="66.282837"
           ry="65.481026" />
        <g
           id="g4612">
          <ellipse
             ry="29.799156"
             rx="31.252775"
             cy="87.162247"
             cx="90.646255"
             id="path4504"
             style="opacity:1;fill:#06ff67;fill-opacity:1;stroke:none;stroke-width:0.11857856;stroke-linecap:round;stroke-linejoin:round;stroke-miterlimit:4;stroke-dasharray:none;stroke-dashoffset:0;stroke-opacity:1;paint-order:stroke markers fill" />
          <g
             id="g4595">
            <g
               id="g4521"
               transform="matrix(0.64096517,0,0,0.64096517,31.0009,20.252725)">
              <ellipse
                 ry="11.90625"
                 rx="10.772322"
                 cy="82.498512"
                 cx="76.351189"
                 id="path4506"
                 style="opacity:1;fill:#ffffff;fill-opacity:1;stroke:none;stroke-width:0.185;stroke-linecap:round;stroke-linejoin:round;stroke-miterlimit:4;stroke-dasharray:none;stroke-dashoffset:0;stroke-opacity:1;paint-order:stroke markers fill" />
              <ellipse
                 ry="6.3783479"
                 rx="6.283854"
                 cy="81.789803"
                 cx="75.831474"
                 id="path4508"
                 style="opacity:1;fill:#2a1818;fill-opacity:1;stroke:none;stroke-width:0.30421484;stroke-linecap:round;stroke-linejoin:round;stroke-miterlimit:4;stroke-dasharray:none;stroke-dashoffset:0;stroke-opacity:1;paint-order:stroke markers fill" />
              <ellipse
                 ry="2.7169919"
                 rx="2.6997957"
                 cy="80.081215"
                 cx="72.797997"
                 id="path4510"
                 style="opacity:1;fill:#ffffff;fill-opacity:1;stroke:none;stroke-width:0.26587152;stroke-linecap:round;stroke-linejoin:round;stroke-miterlimit:4;stroke-dasharray:none;stroke-dashoffset:0;stroke-opacity:1;paint-order:stroke markers fill" />
              <ellipse
                 style="opacity:1;fill:#ffffff;fill-opacity:1;stroke:none;stroke-width:0.16087386;stroke-linecap:round;stroke-linejoin:round;stroke-miterlimit:4;stroke-dasharray:none;stroke-dashoffset:0;stroke-opacity:1;paint-order:stroke markers fill"
                 id="ellipse4512"
                 cx="77.117302"
                 cy="78.766495"
                 rx="1.6808306"
                 ry="1.5978007" />
              <ellipse
                 ry="1.5978007"
                 rx="1.6808306"
                 cy="83.491196"
                 cx="73.999001"
                 id="ellipse4514"
                 style="opacity:1;fill:#ffffff;fill-opacity:1;stroke:none;stroke-width:0.16087386;stroke-linecap:round;stroke-linejoin:round;stroke-miterlimit:4;stroke-dasharray:none;stroke-dashoffset:0;stroke-opacity:1;paint-order:stroke markers fill" />
            </g>
            <g
               id="g4533"
               transform="matrix(0.64096517,0,0,0.64096517,52.414708,20.252725)">
              <ellipse
                 style="opacity:1;fill:#ffffff;fill-opacity:1;stroke:none;stroke-width:0.185;stroke-linecap:round;stroke-linejoin:round;stroke-miterlimit:4;stroke-dasharray:none;stroke-dashoffset:0;stroke-opacity:1;paint-order:stroke markers fill"
                 id="ellipse4523"
                 cx="76.351189"
                 cy="82.498512"
                 rx="10.772322"
                 ry="11.90625" />
              <ellipse
                 style="opacity:1;fill:#2a1818;fill-opacity:1;stroke:none;stroke-width:0.30421484;stroke-linecap:round;stroke-linejoin:round;stroke-miterlimit:4;stroke-dasharray:none;stroke-dashoffset:0;stroke-opacity:1;paint-order:stroke markers fill"
                 id="ellipse4525"
                 cx="75.831474"
                 cy="81.789803"
                 rx="6.283854"
                 ry="6.3783479" />
              <ellipse
                 style="opacity:1;fill:#ffffff;fill-opacity:1;stroke:none;stroke-width:0.26587152;stroke-linecap:round;stroke-linejoin:round;stroke-miterlimit:4;stroke-dasharray:none;stroke-dashoffset:0;stroke-opacity:1;paint-order:stroke markers fill"
                 id="ellipse4527"
                 cx="72.797997"
                 cy="80.081215"
                 rx="2.6997957"
                 ry="2.7169919" />
              <ellipse
                 ry="1.5978007"
                 rx="1.6808306"
                 cy="78.766495"
                 cx="77.117302"
                 id="ellipse4529"
                 style="opacity:1;fill:#ffffff;fill-opacity:1;stroke:none;stroke-width:0.16087386;stroke-linecap:round;stroke-linejoin:round;stroke-miterlimit:4;stroke-dasharray:none;stroke-dashoffset:0;stroke-opacity:1;paint-order:stroke markers fill" />
              <ellipse
                 style="opacity:1;fill:#ffffff;fill-opacity:1;stroke:none;stroke-width:0.16087386;stroke-linecap:round;stroke-linejoin:round;stroke-miterlimit:4;stroke-dasharray:none;stroke-dashoffset:0;stroke-opacity:1;paint-order:stroke markers fill"
                 id="ellipse4531"
                 cx="73.999001"
                 cy="83.491196"
                 rx="1.6808306"
                 ry="1.5978007" />
            </g>
          </g>
          <path
             d="m 97.98632,86.304466 a 7.340065,3.8116579 0 0 1 -3.6744,3.302301 7.340065,3.8116579 0 0 1 -7.344428,-0.0039 7.340065,3.8116579 0 0 1 -3.661286,-3.306227 l 7.340049,0.0079 z"
             sodipodi:end="3.1436537"
             sodipodi:start="0"
             sodipodi:ry="3.8116579"
             sodipodi:rx="7.340065"
             sodipodi:cy="86.304466"
             sodipodi:cx="90.646255"
             sodipodi:type="arc"
             id="path4535"
             style="opacity:1;fill:#ff7272;fill-opacity:1;stroke:none;stroke-width:0.08650999;stroke-linecap:round;stroke-linejoin:round;stroke-miterlimit:4;stroke-dasharray:none;stroke-dashoffset:0;stroke-opacity:1;paint-order:stroke markers fill" />
        </g>
        <g
           id="g4567"
           transform="translate(-1.92528,0)">
          <path
             sodipodi:nodetypes="cccscccccc"
             inkscape:connector-curvature="0"
             id="path4557"
             d="m 120.00401,117.92942 25.39061,-1.06908 c 0,0 -4.99047,-17.166879 -10.15624,-36.081388 2.01197,-4.00704 8.1189,-4.205609 12.56166,-4.810852 5.58646,-0.761051 10.92801,-1.300343 16.83798,1.603618 -0.44299,3.265605 -0.74626,7.296022 -0.8018,10.958049 0.84404,10.832729 3.8783,21.151913 1.33634,31.270533 -0.68125,2.7118 -2.01485,5.57197 -4.27631,7.21628 -8.19857,5.9612 -29.66692,6.68174 -29.66692,6.68174 z"
             style="fill:#06ff67;fill-opacity:1;fill-rule:evenodd;stroke:none;stroke-width:0.26458332px;stroke-linecap:butt;stroke-linejoin:miter;stroke-opacity:1" />
          <path
             style="fill:#06ff67;fill-opacity:1;fill-rule:evenodd;stroke:none;stroke-width:0.26458332px;stroke-linecap:butt;stroke-linejoin:miter;stroke-opacity:1"
             d="m 65.139061,117.92942 -25.39061,-1.06908 c 0,0 4.99047,-17.166879 10.15624,-36.081389 -2.01197,-4.00704 -8.1189,-4.205609 -12.56166,-4.810852 -5.58646,-0.761051 -10.92801,-1.300343 -16.83798,1.603618 0.44299,3.265605 0.74626,7.296022 0.8018,10.958049 -0.84404,10.832727 -3.8783,21.151914 -1.33634,31.270534 0.68125,2.7118 2.01485,5.57197 4.27631,7.21628 8.19857,5.9612 29.66692,6.68174 29.66692,6.68174 z"
             id="path4559"
             inkscape:connector-curvature="0"
             sodipodi:nodetypes="cccscccccc" />
        </g>
        <g
           id="g4616"
           transform="translate(0.4074254,0)">
          <path
             style="fill:#06ff67;fill-opacity:1;fill-rule:evenodd;stroke:none;stroke-width:0.29528821px;stroke-linecap:butt;stroke-linejoin:miter;stroke-opacity:1"
             d="m 120.13763,211.96775 28.33719,1.19315 c 0,0 -5.56961,19.15909 -11.33487,40.26863 2.24546,4.47206 9.0611,4.69367 14.01944,5.36915 6.23477,0.84938 12.19621,1.45126 18.79203,-1.78971 -0.4944,-3.64458 -0.83287,-8.14273 -0.89485,-12.22973 0.94199,-12.08987 4.32838,-23.6066 1.49142,-34.89948 -0.76031,-3.02651 -2.24867,-6.2186 -4.77257,-8.05373 -9.15002,-6.653 -33.10977,-7.45716 -33.10977,-7.45716 z"
             id="path4561"
             inkscape:connector-curvature="0"
             sodipodi:nodetypes="cccscccccc" />
          <path
             sodipodi:nodetypes="cccscccccc"
             inkscape:connector-curvature="0"
             id="path4563"
             d="m 60.340026,211.96775 -28.337189,1.19315 c 0,0 5.569614,19.15909 11.334871,40.26864 -2.245459,4.47206 -9.061098,4.69367 -14.01944,5.36915 -6.234769,0.84937 -12.196205,1.45125 -18.792027,-1.78972 0.494399,-3.64457 0.832863,-8.14272 0.894849,-12.22973 -0.941991,-12.08987 -4.328377,-23.6066 -1.4914226,-34.89948 0.7603086,-3.02651 2.2486736,-6.2186 4.7725756,-8.05373 9.150014,-6.653 33.109765,-7.45716 33.109765,-7.45716 z"
             style="fill:#06ff67;fill-opacity:1;fill-rule:evenodd;stroke:none;stroke-width:0.29528821px;stroke-linecap:butt;stroke-linejoin:miter;stroke-opacity:1" />
        </g>
        <ellipse
           style="opacity:1;fill:#e3c617;fill-opacity:1;stroke:none;stroke-width:0.31144962;stroke-linecap:round;stroke-linejoin:round;stroke-miterlimit:4;stroke-dasharray:none;stroke-dashoffset:0;stroke-opacity:1;paint-order:stroke markers fill"
           id="path4555"
           cx="90.646255"
           cy="166.95276"
           rx="52.243767"
           ry="59.116508" />
      </g>
      <g
         transform="matrix(0.92298863,0,0,0.92298863,6.9103213,10.095496)"
         id="g4652">
        <path
           style="opacity:1;fill:#fff800;fill-opacity:1;stroke:none;stroke-width:0.32249311;stroke-linecap:round;stroke-linejoin:round;stroke-miterlimit:4;stroke-dasharray:none;stroke-dashoffset:0;stroke-opacity:1;paint-order:stroke markers fill"
           id="path4644"
           sodipodi:type="arc"
           sodipodi:cx="-88.112137"
           sodipodi:cy="-150.34523"
           sodipodi:rx="40.475437"
           sodipodi:ry="38.886478"
           sodipodi:start="0"
           sodipodi:end="1.5721903"
           d="m -47.6367,-150.34523 a 40.475437,38.886478 0 0 1 -11.874936,27.51605 40.475437,38.886478 0 0 1 -28.656922,11.37039 l 0.05642,-38.88644 z"
           transform="scale(-1,-1)" />
        <path
           transform="scale(1,-1)"
           d="m 133.90368,-150.72321 a 40.475437,38.886478 0 0 1 -11.87493,27.51606 40.475437,38.886478 0 0 1 -28.656926,11.37039 l 0.05642,-38.88645 z"
           sodipodi:end="1.5721903"
           sodipodi:start="0"
           sodipodi:ry="38.886478"
           sodipodi:rx="40.475437"
           sodipodi:cy="-150.72321"
           sodipodi:cx="93.428246"
           sodipodi:type="arc"
           id="path4648"
           style="opacity:1;fill:#fff800;fill-opacity:1;stroke:none;stroke-width:0.32249311;stroke-linecap:round;stroke-linejoin:round;stroke-miterlimit:4;stroke-dasharray:none;stroke-dashoffset:0;stroke-opacity:1;paint-order:stroke markers fill" />
      </g>
      <g
         id="g4658"
         transform="matrix(-0.92298863,0,0,-0.92298863,174.47003,323.14598)">
        <path
           transform="scale(-1,-1)"
           d="m -47.6367,-150.34523 a 40.475437,38.886478 0 0 1 -11.874936,27.51605 40.475437,38.886478 0 0 1 -28.656922,11.37039 l 0.05642,-38.88644 z"
           sodipodi:end="1.5721903"
           sodipodi:start="0"
           sodipodi:ry="38.886478"
           sodipodi:rx="40.475437"
           sodipodi:cy="-150.34523"
           sodipodi:cx="-88.112137"
           sodipodi:type="arc"
           id="path4654"
           style="opacity:1;fill:#fff800;fill-opacity:1;stroke:none;stroke-width:0.32249311;stroke-linecap:round;stroke-linejoin:round;stroke-miterlimit:4;stroke-dasharray:none;stroke-dashoffset:0;stroke-opacity:1;paint-order:stroke markers fill" />
        <path
           style="opacity:1;fill:#fff800;fill-opacity:1;stroke:none;stroke-width:0.32249311;stroke-linecap:round;stroke-linejoin:round;stroke-miterlimit:4;stroke-dasharray:none;stroke-dashoffset:0;stroke-opacity:1;paint-order:stroke markers fill"
           id="path4656"
           sodipodi:type="arc"
           sodipodi:cx="93.428246"
           sodipodi:cy="-150.72321"
           sodipodi:rx="40.475437"
           sodipodi:ry="38.886478"
           sodipodi:start="0"
           sodipodi:end="1.5721903"
           d="m 133.90368,-150.72321 a 40.475437,38.886478 0 0 1 -11.87493,27.51606 40.475437,38.886478 0 0 1 -28.656926,11.37039 l 0.05642,-38.88645 z"
           transform="scale(1,-1)" />
      </g>
      <g
         transform="translate(0.00590104,0)"
         id="g4666">
        <rect
           style="opacity:1;fill:#fff800;fill-opacity:1;stroke:none;stroke-width:0.185;stroke-linecap:round;stroke-linejoin:round;stroke-miterlimit:4;stroke-dasharray:none;stroke-dashoffset:0;stroke-opacity:1;paint-order:stroke markers fill"
           id="rect4660"
           width="39.57679"
           height="26.867109"
           x="48.380955"
           y="152.99106"
           ry="0.51449287" />
        <rect
           ry="0.51449287"
           y="152.95308"
           x="93.410805"
           height="26.867109"
           width="39.57679"
           id="rect4662"
           style="opacity:1;fill:#fff800;fill-opacity:1;stroke:none;stroke-width:0.185;stroke-linecap:round;stroke-linejoin:round;stroke-miterlimit:4;stroke-dasharray:none;stroke-dashoffset:0;stroke-opacity:1;paint-order:stroke markers fill" />
      </g>
    </g>
    <path
       style="opacity:1;fill:#5117a6;fill-opacity:1;fill-rule:evenodd;stroke:none;stroke-width:0.28222221px;stroke-linecap:butt;stroke-linejoin:miter;stroke-opacity:1"
       d="m 126.63783,56.61884 c -1.23433,0.422945 -3.35065,3.009527 -3.16177,4.094978 -0.48186,0.192944 -0.46146,1.693345 -0.58153,3.116572 -0.61251,-0.543564 -1.23798,-1.073636 -1.85208,-1.606242 -1.06603,-0.924562 -3.38667,-2.54 -3.38667,-2.54 l -37.535552,0.846667 c 0,0 -3.377517,2.442777 -4.797777,3.951111 -0.87717,0.931564 -1.571803,2.024317 -2.257778,3.104444 -1.151173,1.812626 -3.104444,5.644445 -3.104444,5.644445 0,0 3.959016,0.908693 5.926666,1.411111 1.039266,0.265365 2.072902,0.552706 3.104444,0.846666 3.492274,0.995203 6.846234,2.599211 10.442222,3.104445 9.502684,1.335123 19.383979,1.634293 28.786669,-0.282222 2.893,-0.58967 5.83589,-1.597402 8.18444,-3.386667 0.85321,-0.650021 1.97555,-2.54 1.97555,-2.54 0,0 -0.75558,-2.20779 -1.5897,-3.892131 0.37693,-0.1126 0.75695,-0.168867 1.13385,-0.0915 1.74504,-0.620837 3.54251,-0.878522 5.40191,-0.831232 1.68863,-0.986931 3.75103,-2.061641 4.23554,-4.167188 0.55832,-3.027205 -2.5649,-1.303942 -4.07514,-0.806428 -2.39455,0.29585 -4.33583,1.761397 -6.23534,3.127596 -1.21075,1.046809 -0.87895,0.592047 -0.0706,-0.346715 1.71215,-1.245729 2.70872,-3.250328 1.6575,-5.315369 -0.46921,-1.539241 -1.32474,-2.428026 -1.69774,-3.235082 -0.15202,-0.146327 -0.32209,-0.208843 -0.50271,-0.207257 z m -37.204269,5.323086 c 4.520144,-1e-6 8.184443,3.474767 8.184443,7.761111 0,4.286343 -3.664299,7.761111 -8.184443,7.761111 -4.520145,0 -8.184444,-3.474768 -8.184444,-7.761111 0,-4.286344 3.664299,-7.761112 8.184444,-7.761111 z M 110.318,62.50637 c 4.52015,0 8.18445,3.474768 8.18445,7.761111 0,4.286344 -3.6643,7.761112 -8.18445,7.761111 -4.52014,10e-7 -8.18444,-3.474767 -8.18444,-7.761111 0,-4.286343 3.6643,-7.761111 8.18444,-7.761111 z"
       id="path15143"
       inkscape:connector-curvature="0"
       sodipodi:nodetypes="cccsccsscssssscccccccccccssssssssss" />
  </g>
</svg>
